<?xml version="1.0" encoding="utf-8"?>
<!-- Generator: Adobe Illustrator 20.1.0, SVG Export Plug-In . SVG Version: 6.00 Build 0)  -->
<svg version="1.1" id="Layer_1" xmlns="http://www.w3.org/2000/svg" xmlns:xlink="http://www.w3.org/1999/xlink" x="0px" y="0px"
	 viewBox="0 0 128 77" style="enable-background:new 0 0 128 77;" xml:space="preserve">
<style type="text/css">
	.st0{fill:none;}
	.st1{fill:#A1B5B8;}
</style>
<image style="display:none;overflow:visible;" width="128" height="77" xlink:href="upload-icon.png" >
</image>
<g>
	<path class="st0" d="M45.2,49.7c1,0,2-0.4,2.8-1.2l12-12v35.3c0,2.2,1.8,4,4,4s4-1.8,4-4V37.1l11.4,11.4c0.8,0.8,1.8,1.2,2.8,1.2
		c1,0,2-0.4,2.8-1.2c1.6-1.6,1.6-4.1,0-5.7L66.8,24.6c-0.9-0.9-2-1.2-3.1-1.1c-1.1-0.1-2.3,0.3-3.1,1.1L42.3,42.8
		c-1.6,1.6-1.6,4.1,0,5.7C43.1,49.3,44.1,49.7,45.2,49.7z"/>
	<path class="st1" d="M103.7,77L103.7,77L103.7,77c11.4-2.1,20-12.1,20-24.1c0-13.5-11-24.5-24.5-24.5c-2.3,0-4.6,0.3-6.7,0.9
		c-2-13.9-14-24.5-28.4-24.5c-14.5,0-26.5,10.7-28.5,24.7c-2.1-0.6-4.4-0.9-6.7-0.9c-13.5,0-24.5,11-24.5,24.5
		c0,11.7,8.2,21.5,19.2,23.9H103.7z M42.3,42.8l18.2-18.2c0.9-0.9,2-1.2,3.1-1.1c1.1-0.1,2.3,0.3,3.1,1.1l18.2,18.2
		c1.6,1.6,1.6,4.1,0,5.7c-0.8,0.8-1.8,1.2-2.8,1.2c-1,0-2-0.4-2.8-1.2L68,37.1v34.7c0,2.2-1.8,4-4,4s-4-1.8-4-4V36.5l-12,12
		c-0.8,0.8-1.8,1.2-2.8,1.2c-1,0-2-0.4-2.8-1.2C40.8,46.9,40.8,44.4,42.3,42.8z"/>
</g>
</svg>
