<?xml version="1.0" encoding="UTF-8" standalone="no"?>
<!DOCTYPE svg PUBLIC "-//W3C//DTD SVG 1.1//EN" "http://www.w3.org/Graphics/SVG/1.1/DTD/svg11.dtd">
<svg width="100%" height="100%" viewBox="0 0 627 323" version="1.1" xmlns="http://www.w3.org/2000/svg" xmlns:xlink="http://www.w3.org/1999/xlink" xml:space="preserve" xmlns:serif="http://www.serif.com/" style="fill-rule:evenodd;clip-rule:evenodd;stroke-linecap:round;stroke-linejoin:round;stroke-miterlimit:1.5;">
    <g transform="matrix(1,0,0,1,0,-491)">
        <g id="OCR-demo-top-level-folders" serif:id="OCR demo top-level folders" transform="matrix(0.281924,0,0,0.193645,0,491)">
            <rect x="0" y="0" width="2224" height="1668" style="fill:none;"/>
            <g transform="matrix(0.887282,0,0,0.796198,28.0044,52.2849)">
                <rect x="26" y="0" width="2397" height="1932" style="fill:none;stroke:rgb(95,158,167);stroke-width:19.25px;"/>
            </g>
            <g transform="matrix(1.34408,0,0,0.647123,640.256,232.506)">
                <path d="M191,1237L190.989,1395.78" style="fill:none;stroke:rgb(95,158,167);stroke-width:7.09px;"/>
            </g>
            <g id="qr">
            </g>
            <g id="packages" transform="matrix(0.17906,0,0,0.26069,114.267,561.905)">
                <g transform="matrix(1,0,0,1,28.7119,574.511)">
                    <rect x="54.29" y="370.711" width="750" height="500" style="fill:rgb(249,167,119);fill-rule:nonzero;"/>
                </g>
                <g transform="matrix(1,0,0,1,28.7119,574.511)">
                    <path d="M204.29,270.711L54.29,270.711L54.29,350.711L284.29,350.711L204.29,270.711Z" style="fill:rgb(249,167,119);fill-rule:nonzero;"/>
                </g>
                <g transform="matrix(1,0,0,1,28.7119,574.511)">
                    <path d="M945.71,229.288L945.71,729.288L814.29,729.288L814.29,360.708L308.43,360.708L208.43,260.708L195.71,260.708L195.71,229.288L945.71,229.288Z" style="fill:rgb(249,167,119);fill-rule:nonzero;"/>
                </g>
                <g transform="matrix(1,0,0,1,28.7119,574.511)">
                    <path d="M345.711,129.289L195.711,129.289L195.711,209.289L425.711,209.289L345.711,129.289Z" style="fill:rgb(249,167,119);fill-rule:nonzero;"/>
                </g>
            </g>
            <g id="web" transform="matrix(0.17906,0,0,0.26069,615.662,559.283)">
                <g transform="matrix(1,0,0,1,-1140.67,584.57)">
                    <rect x="54.29" y="370.711" width="750" height="500" style="fill:rgb(249,167,119);fill-rule:nonzero;"/>
                </g>
                <g transform="matrix(1,0,0,1,-1140.67,584.57)">
                    <path d="M204.29,270.711L54.29,270.711L54.29,350.711L284.29,350.711L204.29,270.711Z" style="fill:rgb(249,167,119);fill-rule:nonzero;"/>
                </g>
                <g transform="matrix(1,0,0,1,-1140.67,584.57)">
                    <path d="M945.71,229.288L945.71,729.288L814.29,729.288L814.29,360.708L308.43,360.708L208.43,260.708L195.71,260.708L195.71,229.288L945.71,229.288Z" style="fill:rgb(249,167,119);fill-rule:nonzero;"/>
                </g>
                <g transform="matrix(1,0,0,1,-1140.67,584.57)">
                    <path d="M345.711,129.289L195.711,129.289L195.711,209.289L425.711,209.289L345.711,129.289Z" style="fill:rgb(249,167,119);fill-rule:nonzero;"/>
                </g>
            </g>
            <g transform="matrix(1.34408,0,0,1.95682,-931.565,419.306)">
                <text x="1036.09px" y="305.775px" style="font-family:'OpenSans-SemiBold', 'Open Sans', sans-serif;font-weight:600;font-size:30.085px;fill:rgb(216,120,67);">web</text>
            </g>
            <g transform="matrix(1.34408,0,0,1.95682,-519.664,393.943)">
                <text x="978.22px" y="305.775px" style="font-family:'OpenSans-SemiBold', 'Open Sans', sans-serif;font-weight:600;font-size:30.085px;fill:rgb(95,158,167);">commander</text>
            </g>
            <g transform="matrix(1.34408,0,0,1.95682,-1224.06,409.899)">
                <text x="999.19px" y="305.775px" style="font-family:'OpenSans-SemiBold', 'Open Sans', sans-serif;font-weight:600;font-size:30.085px;fill:rgb(216,120,67);">packages</text>
            </g>
            <g transform="matrix(1.34408,0,0,1.95682,-718.149,-255.191)">
                <text x="1037.21px" y="305.775px" style="font-family:'OpenSans-SemiBold', 'Open Sans', sans-serif;font-weight:600;font-size:38.002px;fill:rgb(216,120,67);">ocr</text>
            </g>
            <g transform="matrix(3.05407,0,0,4.44636,-731.11,-1138.36)">
                <text x="302.079px" y="300.824px" style="font-family:'OpenSans-SemiBold', 'Open Sans', sans-serif;font-weight:600;font-size:19.976px;fill:rgb(51,51,51);">OCR project – top-level directories</text>
            </g>
            <g transform="matrix(0.899651,0,0,0.5583,133.696,-253.354)">
                <path d="M647.266,1134.49L103.724,1753.08" style="fill:none;stroke:rgb(249,167,119);stroke-width:10.26px;"/>
            </g>
            <g transform="matrix(-1.01252,0,0,0.587658,642.695,-271.676)">
                <path d="M-72.408,1108.99L100.959,1696.68" style="fill:none;stroke:rgb(249,167,119);stroke-width:9.2px;"/>
            </g>
            <g transform="matrix(-1.6142,0,0,0.784409,1369.18,-506.732)">
                <path d="M404.638,1130.49L292.53,1559.81" style="fill:none;stroke:rgb(95,158,167);stroke-width:5.9px;"/>
            </g>
            <g transform="matrix(-1.6142,0,0,0.784409,1369.18,-506.732)">
                <path d="M404.638,1130.49L157.784,1693.18" style="fill:none;stroke:rgb(95,158,167);stroke-width:5.9px;"/>
            </g>
            <g transform="matrix(-1.6142,0,0,0.784409,1369.18,-506.732)">
                <path d="M404.638,1130.49L-50.532,1841.71" style="fill:none;stroke:rgb(95,158,167);stroke-width:5.9px;"/>
            </g>
            <g transform="matrix(-1.6142,0,0,0.784409,1369.18,-506.732)">
                <path d="M404.638,1130.49L-298.839,1841.71" style="fill:none;stroke:rgb(95,158,167);stroke-width:5.9px;"/>
            </g>
            <g transform="matrix(-1.6142,0,0,0.784409,1369.18,-506.732)">
                <path d="M404.638,1130.49L-384.538,1693.18" style="fill:none;stroke:rgb(95,158,167);stroke-width:5.9px;"/>
            </g>
            <g transform="matrix(2.71073,0,0,3.94651,767.72,1045.95)">
                <path d="M59.831,58.995C59.831,59.678 59.266,60.253 58.562,60.253L41.57,60.253C40.834,60.253 40.269,59.678 40.269,58.995L40.269,33.77C40.269,33.066 40.877,32.511 41.57,32.511L50.764,32.511L50.764,37.728C50.764,39.818 52.472,41.524 54.55,41.524L59.831,41.524L59.831,58.995ZM53.25,33.588L58.69,39.039L54.55,39.039C53.857,39.039 53.25,38.43 53.25,37.728L53.25,33.588ZM56.472,53.332L43.661,53.332C42.968,53.332 42.402,53.887 42.402,54.548C42.402,55.252 42.968,55.817 43.661,55.817L56.472,55.817C57.174,55.817 57.73,55.252 57.73,54.548C57.73,53.887 57.174,53.332 56.472,53.332ZM56.472,48.331L43.661,48.331C42.968,48.331 42.402,48.884 42.402,49.589C42.402,50.239 42.968,50.794 43.661,50.794L56.472,50.794C57.174,50.794 57.73,50.239 57.73,49.589C57.73,48.884 57.174,48.331 56.472,48.331ZM62.304,40.031C62.178,39.349 61.826,38.644 61.26,38.089L54.253,31.114C53.687,30.549 52.942,30.154 52.205,30.069L52.119,30.026L41.57,30.026C39.48,30.026 37.784,31.723 37.784,33.77L37.784,59.177C37.912,61.119 39.564,62.739 41.57,62.739L58.562,62.739C60.652,62.739 62.359,61.085 62.359,58.995L62.359,40.127L62.304,40.031Z" style="fill:rgb(95,158,167);"/>
            </g>
            <g transform="matrix(1.34408,0,0,1.95682,-531.545,745.972)">
                <text x="1027.64px" y="305.775px" style="font-family:'OpenSans-SemiBold', 'Open Sans', sans-serif;font-weight:600;font-size:30.085px;fill:rgb(95,158,167);">ocr.js</text>
            </g>
            <g transform="matrix(2.71073,0,0,3.94651,766.127,1045.83)">
                <path d="M59.831,58.995C59.831,59.678 59.266,60.253 58.562,60.253L41.57,60.253C40.834,60.253 40.269,59.678 40.269,58.995L40.269,33.77C40.269,33.066 40.877,32.511 41.57,32.511L50.764,32.511L50.764,37.728C50.764,39.818 52.472,41.524 54.55,41.524L59.831,41.524L59.831,58.995ZM53.25,33.588L58.69,39.039L54.55,39.039C53.857,39.039 53.25,38.43 53.25,37.728L53.25,33.588ZM56.472,53.332L43.661,53.332C42.968,53.332 42.402,53.887 42.402,54.548C42.402,55.252 42.968,55.817 43.661,55.817L56.472,55.817C57.174,55.817 57.73,55.252 57.73,54.548C57.73,53.887 57.174,53.332 56.472,53.332ZM56.472,48.331L43.661,48.331C42.968,48.331 42.402,48.884 42.402,49.589C42.402,50.239 42.968,50.794 43.661,50.794L56.472,50.794C57.174,50.794 57.73,50.239 57.73,49.589C57.73,48.884 57.174,48.331 56.472,48.331ZM62.304,40.031C62.178,39.349 61.826,38.644 61.26,38.089L54.253,31.114C53.687,30.549 52.942,30.154 52.205,30.069L52.119,30.026L41.57,30.026C39.48,30.026 37.784,31.723 37.784,33.77L37.784,59.177C37.912,61.119 39.564,62.739 41.57,62.739L58.562,62.739C60.652,62.739 62.359,61.085 62.359,58.995L62.359,40.127L62.304,40.031Z" style="fill:rgb(95,158,167);"/>
            </g>
            <g id="commander" transform="matrix(1,0,0,1.54489,-366.46,9.4554)">
                <g transform="matrix(0.17906,0,0,0.168743,1178.59,454.066)">
                    <rect x="54.29" y="370.711" width="750" height="500" style="fill:rgb(95,158,167);fill-rule:nonzero;"/>
                </g>
                <g transform="matrix(0.17906,0,0,0.168743,1178.59,454.542)">
                    <path d="M204.29,270.711L54.29,270.711L54.29,350.711L284.29,350.711L204.29,270.711Z" style="fill:rgb(95,158,167);fill-rule:nonzero;"/>
                </g>
                <g transform="matrix(0.17906,0,0,0.168743,1178.59,454.542)">
                    <path d="M945.71,229.288L945.71,729.288L814.29,729.288L814.29,360.708L308.43,360.708L208.43,260.708L195.71,260.708L195.71,229.288L945.71,229.288Z" style="fill:rgb(95,158,167);fill-rule:nonzero;"/>
                </g>
                <g transform="matrix(0.17906,0,0,0.168743,1178.59,454.542)">
                    <path d="M345.711,129.289L195.711,129.289L195.711,209.289L425.711,209.289L345.711,129.289Z" style="fill:rgb(95,158,167);fill-rule:nonzero;"/>
                </g>
            </g>
            <g transform="matrix(3.48238,0,0,7.33294,-10829.1,-1583.95)">
                <rect x="3331" y="252" width="386" height="161" style="fill:none;stroke:rgb(95,158,167);stroke-opacity:0.5;stroke-width:3.28px;"/>
            </g>
            <g transform="matrix(3.54705,0,0,5.16409,-712.75,-2462.76)">
                <text x="573.977px" y="543.656px" style="font-family:'Merriweather-Bold', 'Merriweather';font-weight:700;font-size:9.333px;fill:rgb(63,107,113);fill-opacity:0.85;">Directories and ﬁles not</text>
                <text x="567.415px" y="552.99px" style="font-family:'Merriweather-Bold', 'Merriweather';font-weight:700;font-size:9.333px;fill:rgb(63,107,113);fill-opacity:0.85;">recognized by the deployer</text>
            </g>
            <g transform="matrix(1.34408,0,0,1.95682,569.595,292.827)">
                <text x="1009.88px" y="305.775px" style="font-family:'OpenSans-SemiBold', 'Open Sans', sans-serif;font-weight:600;font-size:24.631px;fill:rgb(95,158,167);">.gitignore</text>
            </g>
            <g transform="matrix(1.34408,0,0,1.95682,436.546,401.791)">
                <text x="953.956px" y="305.775px" style="font-family:'OpenSans-SemiBold', 'Open Sans', sans-serif;font-weight:600;font-size:24.631px;fill:rgb(95,158,167);">slack-env.template</text>
            </g>
            <g transform="matrix(1.34408,0,0,1.95682,-287.898,292.827)">
                <text x="999.249px" y="305.775px" style="font-family:'OpenSans-SemiBold', 'Open Sans', sans-serif;font-weight:600;font-size:24.631px;fill:rgb(95,158,167);">project.yml</text>
            </g>
            <g transform="matrix(1.34408,0,0,1.95682,2.70865,402.05)">
                <text x="893.233px" y="305.775px" style="font-family:'OpenSans-SemiBold', 'Open Sans', sans-serif;font-weight:600;font-size:24.631px;fill:rgb(95,158,167);">project-slack-notiﬁcation.yml</text>
            </g>
        </g>
    </g>
</svg>
