<?xml version="1.0" encoding="UTF-8" standalone="no"?>
<!DOCTYPE svg PUBLIC "-//W3C//DTD SVG 1.1//EN" "http://www.w3.org/Graphics/SVG/1.1/DTD/svg11.dtd">
<svg width="100%" height="100%" viewBox="0 0 627 499" version="1.1" xmlns="http://www.w3.org/2000/svg" xmlns:xlink="http://www.w3.org/1999/xlink" xml:space="preserve" xmlns:serif="http://www.serif.com/" style="fill-rule:evenodd;clip-rule:evenodd;stroke-linecap:round;stroke-linejoin:round;stroke-miterlimit:1.5;">
    <g transform="matrix(1,0,0,1,-665,-800)">
        <g id="OCR-project---actions" serif:id="OCR project - actions" transform="matrix(0.281924,0,0,0.299161,665,800)">
            <rect x="0" y="0" width="2224" height="1668" style="fill:none;"/>
            <g transform="matrix(0.878993,0,0,0.820529,33.899,33.8438)">
                <rect x="26" y="0" width="2397" height="1932" style="fill:none;stroke:rgb(95,158,167);stroke-width:16.22px;"/>
            </g>
            <g transform="matrix(1.34408,0,0,0.418879,441.638,678.896)">
                <path d="M69.743,343.315L288.962,1142.43" style="fill:none;stroke:rgb(249,167,119);stroke-width:7.09px;"/>
            </g>
            <g transform="matrix(1.34408,0,0,0.418879,1563.63,802.534)">
                <path d="M190.989,1225.49L190.989,1293.94" style="fill:none;stroke:rgb(249,167,119);stroke-width:7.09px;"/>
            </g>
            <g transform="matrix(1.34408,0,0,0.418879,1238.39,803.42)">
                <path d="M190.989,1225.49L190.989,1293.94" style="fill:none;stroke:rgb(249,167,119);stroke-width:7.09px;"/>
            </g>
            <g transform="matrix(1.34408,0,0,0.418879,568.543,803.42)">
                <path d="M190.989,1225.49L190.989,1293.94" style="fill:none;stroke:rgb(249,167,119);stroke-width:7.09px;"/>
            </g>
            <g transform="matrix(1.34408,0,0,0.418879,924.761,794.92)">
                <path d="M190.989,1225.49L190.989,1723.29" style="fill:none;stroke:rgb(249,167,119);stroke-width:7.09px;"/>
            </g>
            <g id="commander">
            </g>
            <g id="qr" transform="matrix(0.179717,0,0,0.169363,184.834,722.373)">
                <g transform="matrix(1,0,0,1,675.398,2368.82)">
                    <rect x="125" y="300" width="750" height="500" style="fill:rgb(249,167,119);fill-rule:nonzero;"/>
                </g>
                <g transform="matrix(1,0,0,1,675.398,2368.82)">
                    <path d="M275,200L125,200L125,280L355,280L275,200Z" style="fill:rgb(249,167,119);fill-rule:nonzero;"/>
                </g>
            </g>
            <g id="packages" transform="matrix(0.17906,0,0,0.168743,578.931,357.598)">
                <g transform="matrix(1,0,0,1,2498.6,-690.728)">
                    <rect x="54.29" y="370.711" width="750" height="500" style="fill:rgb(249,167,119);fill-rule:nonzero;"/>
                </g>
                <g transform="matrix(1,0,0,1,2498.6,-690.728)">
                    <path d="M204.29,270.711L54.29,270.711L54.29,350.711L284.29,350.711L204.29,270.711Z" style="fill:rgb(249,167,119);fill-rule:nonzero;"/>
                </g>
                <g transform="matrix(1,0,0,1,2498.6,-690.728)">
                    <path d="M945.71,229.288L945.71,729.288L814.29,729.288L814.29,360.708L308.43,360.708L208.43,260.708L195.71,260.708L195.71,229.288L945.71,229.288Z" style="fill:rgb(249,167,119);fill-rule:nonzero;"/>
                </g>
                <g transform="matrix(1,0,0,1,2498.6,-690.728)">
                    <path d="M345.711,129.289L195.711,129.289L195.711,209.289L425.711,209.289L345.711,129.289Z" style="fill:rgb(249,167,119);fill-rule:nonzero;"/>
                </g>
            </g>
            <g id="web">
            </g>
            <g transform="matrix(1.34408,0,0,1.26664,-898.042,1165.18)">
                <text x="989.218px" y="305.775px" style="font-family:'OpenSans-SemiBold', 'Open Sans', sans-serif;font-weight:600;font-size:24.631px;fill:rgb(216,120,67);">package.json</text>
            </g>
            <g transform="matrix(1.34408,0,0,1.26664,-222.519,1165.18)">
                <text x="989.218px" y="305.775px" style="font-family:'OpenSans-SemiBold', 'Open Sans', sans-serif;font-weight:600;font-size:24.631px;fill:rgb(216,120,67);">package.json</text>
            </g>
            <g transform="matrix(1.34408,0,0,1.26664,-1044.64,1070.56)">
                <text x="1019.19px" y="305.775px" style="font-family:'OpenSans-SemiBold', 'Open Sans', sans-serif;font-weight:600;font-size:24.631px;fill:rgb(216,120,67);">build.sh</text>
            </g>
            <g transform="matrix(1.34408,0,0,1.26664,-821.655,1070.56)">
                <text x="1019.66px" y="305.775px" style="font-family:'OpenSans-SemiBold', 'Open Sans', sans-serif;font-weight:600;font-size:24.631px;fill:rgb(216,120,67);">.include</text>
            </g>
            <g transform="matrix(1.34408,0,0,1.26664,-132.084,1070.56)">
                <text x="1019.66px" y="305.775px" style="font-family:'OpenSans-SemiBold', 'Open Sans', sans-serif;font-weight:600;font-size:24.631px;fill:rgb(216,120,67);">.include</text>
            </g>
            <g transform="matrix(1.34408,0,0,1.26664,-1195.67,1160.68)">
                <text x="983.068px" y="305.775px" style="font-family:'OpenSans-SemiBold', 'Open Sans', sans-serif;font-weight:600;font-size:30.085px;fill:rgb(216,120,67);">workﬂow.js</text>
            </g>
            <g transform="matrix(1.34408,0,0,1.26664,-1039.6,913.372)">
                <text x="974.115px" y="305.775px" style="font-family:'OpenSans-SemiBold', 'Open Sans', sans-serif;font-weight:600;font-size:30.085px;fill:rgb(216,120,67);">acceptImage</text>
            </g>
            <g transform="matrix(0.179717,0,0,0.169363,736.169,1123.56)">
                <rect x="125" y="300" width="750" height="500" style="fill:rgb(249,167,119);fill-rule:nonzero;"/>
            </g>
            <g transform="matrix(0.179717,0,0,0.169363,736.169,1123.56)">
                <path d="M275,200L125,200L125,280L355,280L275,200Z" style="fill:rgb(249,167,119);fill-rule:nonzero;"/>
            </g>
            <g transform="matrix(1.34408,0,0,1.26664,-607.962,912.51)">
                <text x="993.204px" y="305.775px" style="font-family:'OpenSans-SemiBold', 'Open Sans', sans-serif;font-weight:600;font-size:30.085px;fill:rgb(216,120,67);">credential</text>
            </g>
            <g transform="matrix(0.179717,0,0,0.169363,1087.81,1123.56)">
                <rect x="125" y="300" width="750" height="500" style="fill:rgb(249,167,119);fill-rule:nonzero;"/>
            </g>
            <g transform="matrix(0.179717,0,0,0.169363,1087.81,1123.56)">
                <path d="M275,200L125,200L125,280L355,280L275,200Z" style="fill:rgb(249,167,119);fill-rule:nonzero;"/>
            </g>
            <g transform="matrix(1.34408,0,0,1.26664,-256.317,912.23)">
                <text x="973.006px" y="305.775px" style="font-family:'OpenSans-SemiBold', 'Open Sans', sans-serif;font-weight:600;font-size:30.085px;fill:rgb(216,120,67);">imageToText</text>
            </g>
            <g transform="matrix(0.179717,0,0,0.169363,1405.24,1123.56)">
                <rect x="125" y="300" width="750" height="500" style="fill:rgb(249,167,119);fill-rule:nonzero;"/>
            </g>
            <g transform="matrix(0.179717,0,0,0.169363,1405.24,1123.56)">
                <path d="M275,200L125,200L125,280L355,280L275,200Z" style="fill:rgb(249,167,119);fill-rule:nonzero;"/>
            </g>
            <g transform="matrix(1.34408,0,0,1.26664,61.1044,912.23)">
                <text x="1003.21px" y="305.775px" style="font-family:'OpenSans-SemiBold', 'Open Sans', sans-serif;font-weight:600;font-size:30.085px;fill:rgb(216,120,67);">progress</text>
            </g>
            <g transform="matrix(0.179717,0,0,0.169363,1726.65,1122.68)">
                <rect x="125" y="300" width="750" height="500" style="fill:rgb(249,167,119);fill-rule:nonzero;"/>
            </g>
            <g transform="matrix(0.179717,0,0,0.169363,1726.65,1122.68)">
                <path d="M275,200L125,200L125,280L355,280L275,200Z" style="fill:rgb(249,167,119);fill-rule:nonzero;"/>
            </g>
            <g transform="matrix(1.34408,0,0,1.26664,382.516,909.49)">
                <text x="967.967px" y="305.775px" style="font-family:'OpenSans-SemiBold', 'Open Sans', sans-serif;font-weight:600;font-size:30.085px;fill:rgb(216,120,67);">textToSpeech</text>
            </g>
            <g transform="matrix(1.34408,0,0,0.418879,1611.36,278.269)">
                <path d="M191,1237L190.022,1362.48" style="fill:none;stroke:rgb(249,167,119);stroke-width:7.09px;"/>
            </g>
            <g transform="matrix(1.34408,0,0,0.418879,134.924,800.078)">
                <path d="M191,1237L190.965,1456.68" style="fill:none;stroke:rgb(249,167,119);stroke-width:7.09px;"/>
            </g>
            <g transform="matrix(0.179717,0,0,0.169363,444.623,599.272)">
                <rect x="125" y="300" width="750" height="500" style="fill:rgb(249,167,119);fill-rule:nonzero;"/>
            </g>
            <g transform="matrix(0.179717,0,0,0.169363,1776.9,599.183)">
                <rect x="125" y="300" width="750" height="500" style="fill:rgb(249,167,119);fill-rule:nonzero;"/>
            </g>
            <g transform="matrix(0.179717,0,0,0.169363,444.623,599.272)">
                <path d="M275,200L125,200L125,280L355,280L275,200Z" style="fill:rgb(249,167,119);fill-rule:nonzero;"/>
            </g>
            <g transform="matrix(0.179717,0,0,0.169363,1776.9,599.183)">
                <path d="M275,200L125,200L125,280L355,280L275,200Z" style="fill:rgb(249,167,119);fill-rule:nonzero;"/>
            </g>
            <g transform="matrix(1.34408,0,0,1.26664,-899.507,392.319)">
                <text x="1043.3px" y="305.775px" style="font-family:'OpenSans-SemiBold', 'Open Sans', sans-serif;font-weight:600;font-size:30.085px;fill:rgb(216,120,67);">ocr</text>
            </g>
            <g transform="matrix(1.34408,0,0,1.26664,432.77,392.23)">
                <text x="1035.25px" y="305.775px" style="font-family:'OpenSans-SemiBold', 'Open Sans', sans-serif;font-weight:600;font-size:30.085px;fill:rgb(216,120,67);">utils</text>
            </g>
            <g transform="matrix(1.34408,0,0,1.26664,-317.137,51.8256)">
                <text x="999.19px" y="305.775px" style="font-family:'OpenSans-SemiBold', 'Open Sans', sans-serif;font-weight:600;font-size:30.085px;fill:rgb(216,120,67);">packages</text>
            </g>
            <g transform="matrix(3.05407,0,0,2.8781,-343.221,-735.942)">
                <text x="363.559px" y="300.824px" style="font-family:'OpenSans-SemiBold', 'Open Sans', sans-serif;font-weight:600;font-size:19.976px;fill:rgb(51,51,51);">OCR project – actions</text>
            </g>
            <g transform="matrix(0.816194,0,0,0.419753,333.515,37.0468)">
                <path d="M951.689,1054.71L246.224,1403.5" style="fill:none;stroke:rgb(249,167,119);stroke-width:10.79px;"/>
            </g>
            <g transform="matrix(-0.816194,0,0,0.419753,645.301,65.5914)">
                <path d="M-577.949,986.703L-1505.54,1335.49" style="fill:none;stroke:rgb(249,167,119);stroke-width:10.79px;"/>
            </g>
            <g transform="matrix(0.614767,0,0,0.419753,274.175,798.996)">
                <path d="M191,1237L-37.076,1445.13" style="fill:none;stroke:rgb(249,167,119);stroke-width:13.22px;"/>
            </g>
            <g transform="matrix(0.614767,0,0,0.419753,433.877,692.688)">
                <path d="M165.106,309.743L-68.777,1087.44" style="fill:none;stroke:rgb(249,167,119);stroke-width:13.22px;"/>
            </g>
            <g transform="matrix(-0.614767,0,0,0.419753,509.016,798.996)">
                <path d="M191,1237L-111.855,1477.03" style="fill:none;stroke:rgb(249,167,119);stroke-width:13.22px;"/>
            </g>
            <g transform="matrix(-0.614767,0,0,0.419753,509.016,798.996)">
                <path d="M191,1237L-53.904,1682.36" style="fill:none;stroke:rgb(249,167,119);stroke-width:13.22px;"/>
            </g>
            <g transform="matrix(-0.614767,0,0,0.419753,943.448,682.137)">
                <path d="M663.779,334.88L-378.811,1132.33" style="fill:none;stroke:rgb(249,167,119);stroke-width:13.22px;"/>
            </g>
            <g transform="matrix(-0.614767,0,0,0.419753,1118.1,818.503)">
                <path d="M-103.073,1166.75L-272.365,1453.91" style="fill:none;stroke:rgb(249,167,119);stroke-width:13.22px;"/>
            </g>
            <g transform="matrix(-0.614767,0,0,0.419753,1118.1,818.503)">
                <path d="M-103.073,1166.75L62.614,1254.84" style="fill:none;stroke:rgb(249,167,119);stroke-width:13.22px;"/>
            </g>
            <g transform="matrix(-0.614767,0,0,0.419753,1220.21,676.132)">
                <path d="M1113.97,349.185L-451.438,1146.63" style="fill:none;stroke:rgb(249,167,119);stroke-width:13.22px;"/>
            </g>
            <g transform="matrix(-0.614767,0,0,0.419753,1220.21,676.132)">
                <path d="M1113.97,349.185L-980.112,1146.63" style="fill:none;stroke:rgb(249,167,119);stroke-width:13.22px;"/>
            </g>
            <g transform="matrix(2.71073,0,0,2.55455,84.8953,1339.53)">
                <path d="M59.831,58.995C59.831,59.678 59.266,60.253 58.562,60.253L41.57,60.253C40.834,60.253 40.269,59.678 40.269,58.995L40.269,33.77C40.269,33.066 40.877,32.511 41.57,32.511L50.764,32.511L50.764,37.728C50.764,39.818 52.472,41.524 54.55,41.524L59.831,41.524L59.831,58.995ZM53.25,33.588L58.69,39.039L54.55,39.039C53.857,39.039 53.25,38.43 53.25,37.728L53.25,33.588ZM56.472,53.332L43.661,53.332C42.968,53.332 42.402,53.887 42.402,54.548C42.402,55.252 42.968,55.817 43.661,55.817L56.472,55.817C57.174,55.817 57.73,55.252 57.73,54.548C57.73,53.887 57.174,53.332 56.472,53.332ZM56.472,48.331L43.661,48.331C42.968,48.331 42.402,48.884 42.402,49.589C42.402,50.239 42.968,50.794 43.661,50.794L56.472,50.794C57.174,50.794 57.73,50.239 57.73,49.589C57.73,48.884 57.174,48.331 56.472,48.331ZM62.304,40.031C62.178,39.349 61.826,38.644 61.26,38.089L54.253,31.114C53.687,30.549 52.942,30.154 52.205,30.069L52.119,30.026L41.57,30.026C39.48,30.026 37.784,31.723 37.784,33.77L37.784,59.177C37.912,61.119 39.564,62.739 41.57,62.739L58.562,62.739C60.652,62.739 62.359,61.085 62.359,58.995L62.359,40.127L62.304,40.031Z" style="fill:rgb(249,167,119);"/>
            </g>
            <g transform="matrix(1.34408,0,0,1.26664,-608.771,1103.96)">
                <text x="1010.7px" y="305.775px" style="font-family:'OpenSans-SemiBold', 'Open Sans', sans-serif;font-weight:600;font-size:30.085px;fill:rgb(216,120,67);">index.js</text>
            </g>
            <g transform="matrix(1.34408,0,0,1.26664,-358.141,1106.97)">
                <text x="1010.7px" y="305.775px" style="font-family:'OpenSans-SemiBold', 'Open Sans', sans-serif;font-weight:600;font-size:30.085px;fill:rgb(216,120,67);">index.js</text>
            </g>
            <g transform="matrix(1.34408,0,0,1.26664,64.9597,1103.96)">
                <text x="1010.7px" y="305.775px" style="font-family:'OpenSans-SemiBold', 'Open Sans', sans-serif;font-weight:600;font-size:30.085px;fill:rgb(216,120,67);">index.js</text>
            </g>
            <g transform="matrix(1.34408,0,0,1.26664,440.608,607.232)">
                <text x="1014.48px" y="305.775px" style="font-family:'OpenSans-SemiBold', 'Open Sans', sans-serif;font-weight:600;font-size:30.085px;fill:rgb(216,120,67);">slack.js</text>
            </g>
            <g transform="matrix(1.34408,0,0,1.26664,388.732,1103.96)">
                <text x="1010.7px" y="305.775px" style="font-family:'OpenSans-SemiBold', 'Open Sans', sans-serif;font-weight:600;font-size:30.085px;fill:rgb(216,120,67);">index.js</text>
            </g>
            <g transform="matrix(2.71073,0,0,2.55455,689.197,1279.97)">
                <path d="M59.831,58.995C59.831,59.678 59.266,60.253 58.562,60.253L41.57,60.253C40.834,60.253 40.269,59.678 40.269,58.995L40.269,33.77C40.269,33.066 40.877,32.511 41.57,32.511L50.764,32.511L50.764,37.728C50.764,39.818 52.472,41.524 54.55,41.524L59.831,41.524L59.831,58.995ZM53.25,33.588L58.69,39.039L54.55,39.039C53.857,39.039 53.25,38.43 53.25,37.728L53.25,33.588ZM56.472,53.332L43.661,53.332C42.968,53.332 42.402,53.887 42.402,54.548C42.402,55.252 42.968,55.817 43.661,55.817L56.472,55.817C57.174,55.817 57.73,55.252 57.73,54.548C57.73,53.887 57.174,53.332 56.472,53.332ZM56.472,48.331L43.661,48.331C42.968,48.331 42.402,48.884 42.402,49.589C42.402,50.239 42.968,50.794 43.661,50.794L56.472,50.794C57.174,50.794 57.73,50.239 57.73,49.589C57.73,48.884 57.174,48.331 56.472,48.331ZM62.304,40.031C62.178,39.349 61.826,38.644 61.26,38.089L54.253,31.114C53.687,30.549 52.942,30.154 52.205,30.069L52.119,30.026L41.57,30.026C39.48,30.026 37.784,31.723 37.784,33.77L37.784,59.177C37.912,61.119 39.564,62.739 41.57,62.739L58.562,62.739C60.652,62.739 62.359,61.085 62.359,58.995L62.359,40.127L62.304,40.031Z" style="fill:rgb(249,167,119);"/>
            </g>
            <g transform="matrix(2.71073,0,0,2.55455,939.828,1279.63)">
                <path d="M59.831,58.995C59.831,59.678 59.266,60.253 58.562,60.253L41.57,60.253C40.834,60.253 40.269,59.678 40.269,58.995L40.269,33.77C40.269,33.066 40.877,32.511 41.57,32.511L50.764,32.511L50.764,37.728C50.764,39.818 52.472,41.524 54.55,41.524L59.831,41.524L59.831,58.995ZM53.25,33.588L58.69,39.039L54.55,39.039C53.857,39.039 53.25,38.43 53.25,37.728L53.25,33.588ZM56.472,53.332L43.661,53.332C42.968,53.332 42.402,53.887 42.402,54.548C42.402,55.252 42.968,55.817 43.661,55.817L56.472,55.817C57.174,55.817 57.73,55.252 57.73,54.548C57.73,53.887 57.174,53.332 56.472,53.332ZM56.472,48.331L43.661,48.331C42.968,48.331 42.402,48.884 42.402,49.589C42.402,50.239 42.968,50.794 43.661,50.794L56.472,50.794C57.174,50.794 57.73,50.239 57.73,49.589C57.73,48.884 57.174,48.331 56.472,48.331ZM62.304,40.031C62.178,39.349 61.826,38.644 61.26,38.089L54.253,31.114C53.687,30.549 52.942,30.154 52.205,30.069L52.119,30.026L41.57,30.026C39.48,30.026 37.784,31.723 37.784,33.77L37.784,59.177C37.912,61.119 39.564,62.739 41.57,62.739L58.562,62.739C60.652,62.739 62.359,61.085 62.359,58.995L62.359,40.127L62.304,40.031Z" style="fill:rgb(249,167,119);"/>
            </g>
            <g transform="matrix(2.71073,0,0,2.55455,1362.93,1279.97)">
                <path d="M59.831,58.995C59.831,59.678 59.266,60.253 58.562,60.253L41.57,60.253C40.834,60.253 40.269,59.678 40.269,58.995L40.269,33.77C40.269,33.066 40.877,32.511 41.57,32.511L50.764,32.511L50.764,37.728C50.764,39.818 52.472,41.524 54.55,41.524L59.831,41.524L59.831,58.995ZM53.25,33.588L58.69,39.039L54.55,39.039C53.857,39.039 53.25,38.43 53.25,37.728L53.25,33.588ZM56.472,53.332L43.661,53.332C42.968,53.332 42.402,53.887 42.402,54.548C42.402,55.252 42.968,55.817 43.661,55.817L56.472,55.817C57.174,55.817 57.73,55.252 57.73,54.548C57.73,53.887 57.174,53.332 56.472,53.332ZM56.472,48.331L43.661,48.331C42.968,48.331 42.402,48.884 42.402,49.589C42.402,50.239 42.968,50.794 43.661,50.794L56.472,50.794C57.174,50.794 57.73,50.239 57.73,49.589C57.73,48.884 57.174,48.331 56.472,48.331ZM62.304,40.031C62.178,39.349 61.826,38.644 61.26,38.089L54.253,31.114C53.687,30.549 52.942,30.154 52.205,30.069L52.119,30.026L41.57,30.026C39.48,30.026 37.784,31.723 37.784,33.77L37.784,59.177C37.912,61.119 39.564,62.739 41.57,62.739L58.562,62.739C60.652,62.739 62.359,61.085 62.359,58.995L62.359,40.127L62.304,40.031Z" style="fill:rgb(249,167,119);"/>
            </g>
            <g transform="matrix(2.71073,0,0,2.55455,1738.58,786.58)">
                <path d="M59.831,58.995C59.831,59.678 59.266,60.253 58.562,60.253L41.57,60.253C40.834,60.253 40.269,59.678 40.269,58.995L40.269,33.77C40.269,33.066 40.877,32.511 41.57,32.511L50.764,32.511L50.764,37.728C50.764,39.818 52.472,41.524 54.55,41.524L59.831,41.524L59.831,58.995ZM53.25,33.588L58.69,39.039L54.55,39.039C53.857,39.039 53.25,38.43 53.25,37.728L53.25,33.588ZM56.472,53.332L43.661,53.332C42.968,53.332 42.402,53.887 42.402,54.548C42.402,55.252 42.968,55.817 43.661,55.817L56.472,55.817C57.174,55.817 57.73,55.252 57.73,54.548C57.73,53.887 57.174,53.332 56.472,53.332ZM56.472,48.331L43.661,48.331C42.968,48.331 42.402,48.884 42.402,49.589C42.402,50.239 42.968,50.794 43.661,50.794L56.472,50.794C57.174,50.794 57.73,50.239 57.73,49.589C57.73,48.884 57.174,48.331 56.472,48.331ZM62.304,40.031C62.178,39.349 61.826,38.644 61.26,38.089L54.253,31.114C53.687,30.549 52.942,30.154 52.205,30.069L52.119,30.026L41.57,30.026C39.48,30.026 37.784,31.723 37.784,33.77L37.784,59.177C37.912,61.119 39.564,62.739 41.57,62.739L58.562,62.739C60.652,62.739 62.359,61.085 62.359,58.995L62.359,40.127L62.304,40.031Z" style="fill:rgb(249,167,119);"/>
            </g>
            <g transform="matrix(2.71073,0,0,2.55455,1686.7,1279.97)">
                <path d="M59.831,58.995C59.831,59.678 59.266,60.253 58.562,60.253L41.57,60.253C40.834,60.253 40.269,59.678 40.269,58.995L40.269,33.77C40.269,33.066 40.877,32.511 41.57,32.511L50.764,32.511L50.764,37.728C50.764,39.818 52.472,41.524 54.55,41.524L59.831,41.524L59.831,58.995ZM53.25,33.588L58.69,39.039L54.55,39.039C53.857,39.039 53.25,38.43 53.25,37.728L53.25,33.588ZM56.472,53.332L43.661,53.332C42.968,53.332 42.402,53.887 42.402,54.548C42.402,55.252 42.968,55.817 43.661,55.817L56.472,55.817C57.174,55.817 57.73,55.252 57.73,54.548C57.73,53.887 57.174,53.332 56.472,53.332ZM56.472,48.331L43.661,48.331C42.968,48.331 42.402,48.884 42.402,49.589C42.402,50.239 42.968,50.794 43.661,50.794L56.472,50.794C57.174,50.794 57.73,50.239 57.73,49.589C57.73,48.884 57.174,48.331 56.472,48.331ZM62.304,40.031C62.178,39.349 61.826,38.644 61.26,38.089L54.253,31.114C53.687,30.549 52.942,30.154 52.205,30.069L52.119,30.026L41.57,30.026C39.48,30.026 37.784,31.723 37.784,33.77L37.784,59.177C37.912,61.119 39.564,62.739 41.57,62.739L58.562,62.739C60.652,62.739 62.359,61.085 62.359,58.995L62.359,40.127L62.304,40.031Z" style="fill:rgb(249,167,119);"/>
            </g>
            <g transform="matrix(2.71073,0,0,2.55455,689.303,715.941)">
                <clipPath id="_clip1">
                    <rect x="72.488" y="-47.971" width="100" height="100"/>
                </clipPath>
                <g clip-path="url(#_clip1)">
                    <path d="M59.831,58.995C59.831,59.678 59.266,60.253 58.562,60.253L41.57,60.253C40.834,60.253 40.269,59.678 40.269,58.995L40.269,33.77C40.269,33.066 40.877,32.511 41.57,32.511L50.764,32.511L50.764,37.728C50.764,39.818 52.472,41.524 54.55,41.524L59.831,41.524L59.831,58.995ZM53.25,33.588L58.69,39.039L54.55,39.039C53.857,39.039 53.25,38.43 53.25,37.728L53.25,33.588ZM56.472,53.332L43.661,53.332C42.968,53.332 42.402,53.887 42.402,54.548C42.402,55.252 42.968,55.817 43.661,55.817L56.472,55.817C57.174,55.817 57.73,55.252 57.73,54.548C57.73,53.887 57.174,53.332 56.472,53.332ZM56.472,48.331L43.661,48.331C42.968,48.331 42.402,48.884 42.402,49.589C42.402,50.239 42.968,50.794 43.661,50.794L56.472,50.794C57.174,50.794 57.73,50.239 57.73,49.589C57.73,48.884 57.174,48.331 56.472,48.331ZM62.304,40.031C62.178,39.349 61.826,38.644 61.26,38.089L54.253,31.114C53.687,30.549 52.942,30.154 52.205,30.069L52.119,30.026L41.57,30.026C39.48,30.026 37.784,31.723 37.784,33.77L37.784,59.177C37.912,61.119 39.564,62.739 41.57,62.739L58.562,62.739C60.652,62.739 62.359,61.085 62.359,58.995L62.359,40.127L62.304,40.031Z" style="fill:rgb(249,167,119);"/>
                </g>
            </g>
        </g>
    </g>
</svg>
