<?xml version="1.0" encoding="UTF-8" standalone="no"?>
<!DOCTYPE svg PUBLIC "-//W3C//DTD SVG 1.1//EN" "http://www.w3.org/Graphics/SVG/1.1/DTD/svg11.dtd">
<svg width="100%" height="100%" viewBox="0 0 330 338" version="1.1" xmlns="http://www.w3.org/2000/svg" xmlns:xlink="http://www.w3.org/1999/xlink" xml:space="preserve" xmlns:serif="http://www.serif.com/" style="fill-rule:evenodd;clip-rule:evenodd;stroke-linecap:round;stroke-linejoin:round;stroke-miterlimit:1.5;">
    <g transform="matrix(1,0,0,1,-405,0)">
        <g id="Artboard-visits-demo" serif:id="Artboard visits demo" transform="matrix(0.148381,0,0,0.202638,405,0)">
            <rect x="0" y="0" width="2224" height="1668" style="fill:none;"/>
            <g transform="matrix(0.854533,0,0,0.795002,49.2581,69.0255)">
                <rect x="26" y="0" width="2397" height="1932" style="fill:none;stroke:rgb(95,158,167);stroke-width:27.59px;"/>
            </g>
            <g id="packages" transform="matrix(0.340213,0,0,0.249121,500.162,458.844)">
                <g transform="matrix(1,0,0,1,21.3446,26.0279)">
                    <rect x="54.29" y="370.711" width="750" height="500" style="fill:rgb(249,167,119);fill-rule:nonzero;"/>
                </g>
                <g transform="matrix(1,0,0,1,21.3446,26.0279)">
                    <path d="M204.29,270.711L54.29,270.711L54.29,350.711L284.29,350.711L204.29,270.711Z" style="fill:rgb(249,167,119);fill-rule:nonzero;"/>
                </g>
                <g transform="matrix(1,0,0,1,21.3446,26.0279)">
                    <path d="M945.71,229.288L945.71,729.288L814.29,729.288L814.29,360.708L308.43,360.708L208.43,260.708L195.71,260.708L195.71,229.288L945.71,229.288Z" style="fill:rgb(249,167,119);fill-rule:nonzero;"/>
                </g>
                <g transform="matrix(1,0,0,1,21.3446,26.0279)">
                    <path d="M345.711,129.289L195.711,129.289L195.711,209.289L425.711,209.289L345.711,129.289Z" style="fill:rgb(249,167,119);fill-rule:nonzero;"/>
                </g>
            </g>
            <g id="web" transform="matrix(0.340213,0,0,0.249121,1452.81,466.303)">
                <g transform="matrix(1,0,0,1,21.3446,26.0279)">
                    <rect x="54.29" y="370.711" width="750" height="500" style="fill:rgb(249,167,119);fill-rule:nonzero;"/>
                </g>
                <g transform="matrix(1,0,0,1,21.3446,26.0279)">
                    <path d="M204.29,270.711L54.29,270.711L54.29,350.711L284.29,350.711L204.29,270.711Z" style="fill:rgb(249,167,119);fill-rule:nonzero;"/>
                </g>
                <g transform="matrix(1,0,0,1,21.3446,26.0279)">
                    <path d="M945.71,229.288L945.71,729.288L814.29,729.288L814.29,360.708L308.43,360.708L208.43,260.708L195.71,260.708L195.71,229.288L945.71,229.288Z" style="fill:rgb(249,167,119);fill-rule:nonzero;"/>
                </g>
                <g transform="matrix(1,0,0,1,21.3446,26.0279)">
                    <path d="M345.711,129.289L195.711,129.289L195.711,209.289L425.711,209.289L345.711,129.289Z" style="fill:rgb(249,167,119);fill-rule:nonzero;"/>
                </g>
            </g>
            <g transform="matrix(2.55374,0,0,1.86998,-1761.89,964.218)">
                <text x="1005.6px" y="305.775px" style="font-family:'OpenSans-SemiBold', 'Open Sans', sans-serif;font-weight:600;font-size:30.085px;fill:rgb(216,120,67);">info.php</text>
            </g>
            <g transform="matrix(2.55374,0,0,1.86998,-2352.59,964.218)">
                <text x="977.192px" y="305.775px" style="font-family:'OpenSans-SemiBold', 'Open Sans', sans-serif;font-weight:600;font-size:30.085px;fill:rgb(216,120,67);">counter.php</text>
            </g>
            <g transform="matrix(2.55374,0,0,1.86998,-1305.63,521.583)">
                <text x="988.18px" y="305.775px" style="font-family:'OpenSans-SemiBold', 'Open Sans', sans-serif;font-weight:600;font-size:30.085px;fill:rgb(216,120,67);">index.html</text>
            </g>
            <g transform="matrix(2.55374,0,0,1.86998,-1091.59,192.464)">
                <text x="1036.09px" y="305.775px" style="font-family:'OpenSans-SemiBold', 'Open Sans', sans-serif;font-weight:600;font-size:30.085px;fill:rgb(216,120,67);">web</text>
            </g>
            <g transform="matrix(2.55374,0,0,0.618404,191.973,23.0402)">
                <path d="M191,1237L190.989,1395.78" style="fill:none;stroke:rgb(249,167,119);stroke-width:7.09px;"/>
            </g>
            <g transform="matrix(0.341463,0,0,0.250036,509.006,836.188)">
                <rect x="125" y="300" width="750" height="500" style="fill:rgb(249,167,119);fill-rule:nonzero;"/>
            </g>
            <g transform="matrix(0.341463,0,0,0.250036,509.006,836.188)">
                <path d="M275,200L125,200L125,280L355,280L275,200Z" style="fill:rgb(249,167,119);fill-rule:nonzero;"/>
            </g>
            <g transform="matrix(2.55374,0,0,1.86998,-2043.02,542.481)">
                <text x="1029.42px" y="305.775px" style="font-family:'OpenSans-SemiBold', 'Open Sans', sans-serif;font-weight:600;font-size:30.085px;fill:rgb(216,120,67);">visits</text>
            </g>
            <g transform="matrix(2.55374,0,0,1.86998,-2045.16,185.981)">
                <text x="999.19px" y="305.775px" style="font-family:'OpenSans-SemiBold', 'Open Sans', sans-serif;font-weight:600;font-size:30.085px;fill:rgb(216,120,67);">packages</text>
            </g>
            <g transform="matrix(2.55374,0,0,1.86998,-1593.44,-231.577)">
                <text x="1019.69px" y="305.775px" style="font-family:'OpenSans-SemiBold', 'Open Sans', sans-serif;font-weight:600;font-size:38.002px;fill:rgb(216,120,67);">visits</text>
            </g>
            <g transform="matrix(5.80272,0,0,4.24904,-1571.06,-1078.54)">
                <text x="373.416px" y="300.824px" style="font-family:'OpenSans-SemiBold', 'Open Sans', sans-serif;font-weight:600;font-size:19.976px;fill:rgb(51,51,51);">Visits demo project</text>
            </g>
            <g transform="matrix(1.70934,0,0,0.533523,803.508,-294.517)">
                <path d="M191,1237L-72.408,1484.57" style="fill:none;stroke:rgb(249,167,119);stroke-width:10.26px;"/>
            </g>
            <g transform="matrix(0.841461,0,0,0.504975,1469.46,155.061)">
                <path d="M191,1237L-72.408,1484.57" style="fill:none;stroke:rgb(249,167,119);stroke-width:17.52px;"/>
            </g>
            <g transform="matrix(-0.841461,0,0,0.504975,1791.65,155.061)">
                <path d="M191,1237L-72.408,1484.57" style="fill:none;stroke:rgb(249,167,119);stroke-width:17.52px;"/>
            </g>
            <g transform="matrix(-1.92379,0,0,0.561578,1504.17,-328.708)">
                <path d="M191,1237L-72.408,1484.57" style="fill:none;stroke:rgb(249,167,119);stroke-width:9.2px;"/>
            </g>
            <g transform="matrix(1.16806,0,0,0.619695,455.646,384.559)">
                <path d="M191,1237L-72.408,1484.57" style="fill:none;stroke:rgb(249,167,119);stroke-width:13.22px;"/>
            </g>
            <g transform="matrix(-1.16806,0,0,0.619695,901.844,384.559)">
                <path d="M191,1237L-72.408,1484.57" style="fill:none;stroke:rgb(249,167,119);stroke-width:13.22px;"/>
            </g>
            <g transform="matrix(5.15039,0,0,3.77137,113.549,1224.06)">
                <path d="M59.831,58.995C59.831,59.678 59.266,60.253 58.562,60.253L41.57,60.253C40.834,60.253 40.269,59.678 40.269,58.995L40.269,33.77C40.269,33.066 40.877,32.511 41.57,32.511L50.764,32.511L50.764,37.728C50.764,39.818 52.472,41.524 54.55,41.524L59.831,41.524L59.831,58.995ZM53.25,33.588L58.69,39.039L54.55,39.039C53.857,39.039 53.25,38.43 53.25,37.728L53.25,33.588ZM56.472,53.332L43.661,53.332C42.968,53.332 42.402,53.887 42.402,54.548C42.402,55.252 42.968,55.817 43.661,55.817L56.472,55.817C57.174,55.817 57.73,55.252 57.73,54.548C57.73,53.887 57.174,53.332 56.472,53.332ZM56.472,48.331L43.661,48.331C42.968,48.331 42.402,48.884 42.402,49.589C42.402,50.239 42.968,50.794 43.661,50.794L56.472,50.794C57.174,50.794 57.73,50.239 57.73,49.589C57.73,48.884 57.174,48.331 56.472,48.331ZM62.304,40.031C62.178,39.349 61.826,38.644 61.26,38.089L54.253,31.114C53.687,30.549 52.942,30.154 52.205,30.069L52.119,30.026L41.57,30.026C39.48,30.026 37.784,31.723 37.784,33.77L37.784,59.177C37.912,61.119 39.564,62.739 41.57,62.739L58.562,62.739C60.652,62.739 62.359,61.085 62.359,58.995L62.359,40.127L62.304,40.031Z" style="fill:rgb(249,167,119);"/>
            </g>
            <g transform="matrix(5.15039,0,0,3.77137,728.873,1224.06)">
                <path d="M59.831,58.995C59.831,59.678 59.266,60.253 58.562,60.253L41.57,60.253C40.834,60.253 40.269,59.678 40.269,58.995L40.269,33.77C40.269,33.066 40.877,32.511 41.57,32.511L50.764,32.511L50.764,37.728C50.764,39.818 52.472,41.524 54.55,41.524L59.831,41.524L59.831,58.995ZM53.25,33.588L58.69,39.039L54.55,39.039C53.857,39.039 53.25,38.43 53.25,37.728L53.25,33.588ZM56.472,53.332L43.661,53.332C42.968,53.332 42.402,53.887 42.402,54.548C42.402,55.252 42.968,55.817 43.661,55.817L56.472,55.817C57.174,55.817 57.73,55.252 57.73,54.548C57.73,53.887 57.174,53.332 56.472,53.332ZM56.472,48.331L43.661,48.331C42.968,48.331 42.402,48.884 42.402,49.589C42.402,50.239 42.968,50.794 43.661,50.794L56.472,50.794C57.174,50.794 57.73,50.239 57.73,49.589C57.73,48.884 57.174,48.331 56.472,48.331ZM62.304,40.031C62.178,39.349 61.826,38.644 61.26,38.089L54.253,31.114C53.687,30.549 52.942,30.154 52.205,30.069L52.119,30.026L41.57,30.026C39.48,30.026 37.784,31.723 37.784,33.77L37.784,59.177C37.912,61.119 39.564,62.739 41.57,62.739L58.562,62.739C60.652,62.739 62.359,61.085 62.359,58.995L62.359,40.127L62.304,40.031Z" style="fill:rgb(249,167,119);"/>
            </g>
            <g transform="matrix(5.15039,0,0,3.77137,1159.95,808.135)">
                <path d="M59.831,58.995C59.831,59.678 59.266,60.253 58.562,60.253L41.57,60.253C40.834,60.253 40.269,59.678 40.269,58.995L40.269,33.77C40.269,33.066 40.877,32.511 41.57,32.511L50.764,32.511L50.764,37.728C50.764,39.818 52.472,41.524 54.55,41.524L59.831,41.524L59.831,58.995ZM53.25,33.588L58.69,39.039L54.55,39.039C53.857,39.039 53.25,38.43 53.25,37.728L53.25,33.588ZM56.472,53.332L43.661,53.332C42.968,53.332 42.402,53.887 42.402,54.548C42.402,55.252 42.968,55.817 43.661,55.817L56.472,55.817C57.174,55.817 57.73,55.252 57.73,54.548C57.73,53.887 57.174,53.332 56.472,53.332ZM56.472,48.331L43.661,48.331C42.968,48.331 42.402,48.884 42.402,49.589C42.402,50.239 42.968,50.794 43.661,50.794L56.472,50.794C57.174,50.794 57.73,50.239 57.73,49.589C57.73,48.884 57.174,48.331 56.472,48.331ZM62.304,40.031C62.178,39.349 61.826,38.644 61.26,38.089L54.253,31.114C53.687,30.549 52.942,30.154 52.205,30.069L52.119,30.026L41.57,30.026C39.48,30.026 37.784,31.723 37.784,33.77L37.784,59.177C37.912,61.119 39.564,62.739 41.57,62.739L58.562,62.739C60.652,62.739 62.359,61.085 62.359,58.995L62.359,40.127L62.304,40.031Z" style="fill:rgb(249,167,119);"/>
            </g>
            <g transform="matrix(2.55374,0,0,1.86998,-861.579,521.583)">
                <text x="1004.06px" y="305.775px" style="font-family:'OpenSans-SemiBold', 'Open Sans', sans-serif;font-weight:600;font-size:30.085px;fill:rgb(216,120,67);">logo.png</text>
            </g>
            <g transform="matrix(5.15039,0,0,3.77137,1604,808.135)">
                <path d="M59.831,58.995C59.831,59.678 59.266,60.253 58.562,60.253L41.57,60.253C40.834,60.253 40.269,59.678 40.269,58.995L40.269,33.77C40.269,33.066 40.877,32.511 41.57,32.511L50.764,32.511L50.764,37.728C50.764,39.818 52.472,41.524 54.55,41.524L59.831,41.524L59.831,58.995ZM53.25,33.588L58.69,39.039L54.55,39.039C53.857,39.039 53.25,38.43 53.25,37.728L53.25,33.588ZM56.472,53.332L43.661,53.332C42.968,53.332 42.402,53.887 42.402,54.548C42.402,55.252 42.968,55.817 43.661,55.817L56.472,55.817C57.174,55.817 57.73,55.252 57.73,54.548C57.73,53.887 57.174,53.332 56.472,53.332ZM56.472,48.331L43.661,48.331C42.968,48.331 42.402,48.884 42.402,49.589C42.402,50.239 42.968,50.794 43.661,50.794L56.472,50.794C57.174,50.794 57.73,50.239 57.73,49.589C57.73,48.884 57.174,48.331 56.472,48.331ZM62.304,40.031C62.178,39.349 61.826,38.644 61.26,38.089L54.253,31.114C53.687,30.549 52.942,30.154 52.205,30.069L52.119,30.026L41.57,30.026C39.48,30.026 37.784,31.723 37.784,33.77L37.784,59.177C37.912,61.119 39.564,62.739 41.57,62.739L58.562,62.739C60.652,62.739 62.359,61.085 62.359,58.995L62.359,40.127L62.304,40.031Z" style="fill:rgb(249,167,119);"/>
            </g>
        </g>
    </g>
</svg>
